<svg xmlns="http://www.w3.org/2000/svg" version="1.1" xmlns:xlink="http://www.w3.org/1999/xlink" width="512" height="512" x="0" y="0" viewBox="0 0 512 512" style="enable-background:new 0 0 512 512" xml:space="preserve" class=""><g><g data-name="Layer 2"><path d="M256 30a226.06 226.06 0 0 1 88 434.25 226.06 226.06 0 0 1-176-416.5A224.5 224.5 0 0 1 256 30m0-30C114.62 0 0 114.62 0 256s114.62 256 256 256 256-114.62 256-256S397.38 0 256 0z" fill="#fefefe" opacity="1" data-original="#000000" class=""></path><path d="M377.74 223.13h-88.87v-88.87A18.27 18.27 0 0 0 270.61 116h-29.22a18.27 18.27 0 0 0-18.26 18.26v88.87h-88.87A18.27 18.27 0 0 0 116 241.39v29.22a18.27 18.27 0 0 0 18.26 18.26h88.87v88.87A18.27 18.27 0 0 0 241.39 396h29.22a18.27 18.27 0 0 0 18.26-18.26v-88.87h88.87A18.27 18.27 0 0 0 396 270.61v-29.22a18.27 18.27 0 0 0-18.26-18.26z" fill="#fefefe" opacity="1" data-original="#000000" class=""></path></g></g></svg>