<svg xmlns="http://www.w3.org/2000/svg" version="1.1" xmlns:xlink="http://www.w3.org/1999/xlink" width="512" height="512" x="0" y="0" viewBox="0 0 24 24" style="enable-background:new 0 0 512 512" xml:space="preserve" class="">
  <g>
    <path fill="#ce3b3b" d="M22.87 6.17c-.21.32-5.38 7.94-11.84 5.98-4.02-1.22-6.79.02-8.03.8V1.05c2.04-.21 5.91-.2 9.18 2.09 4.66 3.26 9.82 1.9 9.87 1.89.3-.09.63.03.81.28.18.26.19.6.01.86z" opacity="1" data-original="#8bc34a" class=""/>
    <path fill="#131313" d="M3 1v22c0 .55-.45 1-1 1s-1-.45-1-1V1c0-.55.45-1 1-1s1 .45 1 1z" opacity="1" data-original="#607d8b" class=""/>
  </g>
</svg>
