<svg xmlns="http://www.w3.org/2000/svg" version="1.1" xmlns:xlink="http://www.w3.org/1999/xlink" width="512" height="512" x="0" y="0" viewBox="0 0 55 55" style="enable-background:new 0 0 512 512" xml:space="preserve" class=""><g><path d="m51.88 31.29-3.41-3.46 3.44-3.44c.51-.52.84-1.19.94-1.91.05-.9-.28-1.77-.91-2.41a3.332 3.332 0 0 0-4.32 0l-3.46 3.43-3.47-3.41a3.036 3.036 0 1 0-4.3 4.29l3.43 3.44-3.4 3.46a3.263 3.263 0 0 0 .07 4.42c.98 1.14 2.7 1.27 3.84.29.14-.12.27-.26.38-.41l3.44-3.43 3.43 3.43c.49.51 1.12.86 1.81 1 .94.05 1.86-.31 2.51-1a3 3 0 0 0 .03-4.24c-.01-.02-.03-.03-.05-.05zM28.23 4.17c-.41-.27-.9-.41-1.39-.4-4.39 0-12.21 9.94-13.46 11.19-.92.9-1.73 1.91-2.42 3-1.94-.22-5.2.07-6.82 1.47a7.028 7.028 0 0 0-1.93 4.5c-.27 3.06 0 9.16 1.64 10.84 1.91 1.92 5.54 1.59 5.87 1.57s.79-.05 1.28-.06c.35.67 2.07 3 2.63 3.72 1.79 2.31 7.85 9.48 10.58 10.88a3.5 3.5 0 0 0 1.55.4c3.94 0 4.39-6.9 4.6-16.64l.05-1.73c.57-22.22-.46-27.55-2.18-28.74z" fill="#fefefe" opacity="1" data-original="#000000" class=""></path></g></svg>